<svg viewBox="0 0 20 20" version="1.1" xmlns="http://www.w3.org/2000/svg" xmlns:xlink="http://www.w3.org/1999/xlink">
    <g id="Symbols" stroke="none" stroke-width="1" fill="none" fill-rule="evenodd">
        <g id="icon-time" fill="#009ADD">
            <path d="M10,20 C15.5228475,20 20,15.5228475 20,10 C20,4.4771525 15.5228475,0 10,0 C4.4771525,0 0,4.4771525 0,10 C0,15.5228475 4.4771525,20 10,20 Z M10,17.1428571 C13.9448911,17.1428571 17.1428571,13.9448911 17.1428571,10 C17.1428571,6.05510893 13.9448911,2.85714286 10,2.85714286 C6.05510893,2.85714286 2.85714286,6.05510893 2.85714286,10 C2.85714286,13.9448911 6.05510893,17.1428571 10,17.1428571 Z"></path>
            <rect id="Rectangle-7" x="6.19047619" y="6.19047619" width="7.61904762" height="2.85714286" rx="1.42857143"></rect>
            <rect id="Rectangle-7" x="5.71428571" y="8.57142857" width="5.71428571" height="2.85714286" rx="1.42857143"></rect>
        </g>
    </g>
</svg>