<svg width="100%" height="100%" viewBox="0 0 20 20" version="1.1" xmlns="http://www.w3.org/2000/svg" xmlns:xlink="http://www.w3.org/1999/xlink" xml:space="preserve" xmlns:serif="http://www.serif.com/" style="fill-rule:evenodd;clip-rule:evenodd;stroke-linejoin:round;stroke-miterlimit:1.41421;"><rect id="Artboard2" x="0" y="0" width="20" height="20" style="fill:none;"/><path d="M9.279,6.195C9.555,6.2 9.829,6.23 10.098,6.292C10.683,6.428 11.227,6.706 11.689,7.087C11.843,7.213 11.998,7.347 12.121,7.505C12.232,7.647 12.316,7.81 12.368,7.983C12.395,8.073 12.414,8.166 12.423,8.26C12.439,8.423 12.428,8.589 12.39,8.749C12.263,9.275 11.843,9.697 11.318,9.828C11.159,9.868 10.993,9.88 10.829,9.865C10.568,9.841 10.314,9.746 10.101,9.591C10.012,9.525 9.935,9.446 9.852,9.373C9.813,9.341 9.814,9.342 9.774,9.312C9.699,9.261 9.622,9.216 9.537,9.185C9.137,9.036 8.7,9.18 8.341,9.372C8.277,9.407 8.214,9.443 8.153,9.481C8.075,9.53 7.999,9.58 7.925,9.634C7.836,9.699 7.748,9.766 7.662,9.836C7.554,9.925 7.45,10.019 7.347,10.114L7.275,10.182C6.051,11.38 4.826,12.577 3.628,13.801C3.596,13.834 3.566,13.868 3.537,13.903C3.378,14.1 3.257,14.323 3.189,14.568C3.128,14.785 3.109,15.013 3.132,15.237C3.152,15.443 3.208,15.646 3.297,15.833C3.381,16.008 3.493,16.169 3.628,16.31C3.757,16.444 3.906,16.559 4.069,16.649C4.543,16.911 5.124,16.952 5.631,16.762C5.863,16.676 6.07,16.542 6.253,16.376C6.607,16.032 6.942,15.667 7.306,15.333C7.471,15.189 7.66,15.08 7.871,15.018C8.052,14.966 8.242,14.948 8.429,14.967C8.57,14.981 8.709,15.015 8.84,15.069C9.226,15.227 9.533,15.551 9.669,15.945C9.716,16.079 9.742,16.219 9.748,16.36C9.756,16.524 9.735,16.69 9.688,16.847C9.625,17.058 9.515,17.248 9.369,17.411C9.015,17.79 8.64,18.15 8.264,18.508C7.801,18.941 7.258,19.282 6.663,19.505C6.196,19.68 5.701,19.78 5.202,19.804C4.667,19.829 4.127,19.766 3.613,19.615C3.202,19.494 2.808,19.319 2.444,19.093C1.671,18.615 1.039,17.912 0.648,17.091C0.397,16.565 0.246,15.993 0.204,15.411C0.157,14.786 0.234,14.152 0.431,13.557C0.578,13.116 0.791,12.696 1.06,12.317C1.197,12.124 1.349,11.945 1.511,11.773C2.74,10.519 3.994,9.29 5.25,8.063C5.425,7.897 5.604,7.735 5.792,7.583C6.515,6.994 7.352,6.517 8.267,6.308C8.527,6.248 8.79,6.214 9.056,6.199C9.131,6.197 9.204,6.195 9.279,6.195ZM15.104,0.193C15.473,0.212 15.836,0.268 16.191,0.372C16.908,0.583 17.567,0.964 18.128,1.455C18.607,1.874 19.012,2.371 19.301,2.94C19.654,3.637 19.827,4.418 19.808,5.199C19.796,5.706 19.702,6.211 19.531,6.688C19.373,7.126 19.149,7.54 18.87,7.913C18.752,8.071 18.623,8.219 18.489,8.363C17.215,9.659 15.909,10.924 14.619,12.204C14.435,12.383 14.247,12.558 14.049,12.722C13.227,13.404 12.233,13.937 11.152,14.021C10.958,14.036 10.762,14.037 10.568,14.022C10.312,14.002 10.059,13.955 9.813,13.882C9.466,13.78 9.134,13.626 8.827,13.432C8.621,13.302 8.426,13.155 8.242,12.994C8.132,12.898 8.022,12.799 7.926,12.688C7.792,12.533 7.69,12.349 7.631,12.153C7.584,11.995 7.564,11.83 7.571,11.665C7.577,11.524 7.604,11.384 7.65,11.25C7.811,10.786 8.205,10.427 8.681,10.308C8.818,10.274 8.96,10.26 9.101,10.266C9.4,10.279 9.69,10.385 9.928,10.567C10.028,10.644 10.114,10.738 10.208,10.823C10.248,10.857 10.289,10.889 10.332,10.921C10.407,10.973 10.487,11.017 10.573,11.048C10.967,11.189 11.391,11.011 11.725,10.803C11.789,10.763 11.851,10.721 11.912,10.677C12.005,10.61 12.095,10.539 12.183,10.465C12.284,10.379 12.381,10.29 12.477,10.198C13.784,8.919 15.088,7.638 16.372,6.335C16.516,6.182 16.635,6.01 16.722,5.818C16.954,5.299 16.924,4.679 16.641,4.186C16.544,4.015 16.418,3.864 16.275,3.731C16.209,3.67 16.14,3.612 16.068,3.557C15.66,3.248 15.126,3.04 14.613,3.169C14.374,3.228 14.166,3.359 13.986,3.524C13.551,3.945 13.138,4.39 12.695,4.802C12.529,4.946 12.34,5.056 12.128,5.117C11.948,5.17 11.757,5.188 11.57,5.169C11.43,5.155 11.291,5.12 11.16,5.067C10.774,4.909 10.466,4.584 10.33,4.19C10.284,4.056 10.257,3.916 10.251,3.775C10.244,3.611 10.264,3.446 10.312,3.288C10.375,3.078 10.485,2.888 10.631,2.724C11.034,2.293 11.467,1.892 11.886,1.476C12.136,1.234 12.404,1.014 12.701,0.83C13.17,0.539 13.693,0.34 14.237,0.248C14.452,0.212 14.669,0.196 14.886,0.191C14.996,0.191 14.995,0.191 15.104,0.193Z" style="fill:#009adc;"/></svg>