<svg width="660" height="299" viewBox="0 0 660 299" version="1.1" xmlns="http://www.w3.org/2000/svg" xmlns:xlink="http://www.w3.org/1999/xlink">
<title>Page 1</title>
<desc>Created using Figma</desc>
<g id="Canvas" transform="translate(-3391 -7)">
<g id="Page 1">
<g id="Fill 2">
<use xlink:href="#path0_fill" transform="translate(4014.69 229.119)" fill="#48565B"/>
</g>
<g id="Group 5">
<mask id="mask0_outline" mask-type="alpha">
<g id="Clip 4">
<use xlink:href="#path1_fill" transform="translate(4014.69 249.555)" fill="#FFFFFF"/>
</g>
</mask>
<g id="Fill 3" mask="url(#mask0_outline)">
<use xlink:href="#path2_fill" transform="translate(4010.78 249.555)" fill="#000000" fill-opacity="0.3"/>
</g>
</g>
<g id="Fill 6">
<use xlink:href="#path3_fill" transform="translate(4029.72 231.767)" fill="#000000" fill-opacity="0.3"/>
</g>
<g id="Fill 8">
<use xlink:href="#path4_fill" transform="translate(3651.96 246.584)" fill="#48565B"/>
</g>
<g id="Group 12">
<mask id="mask1_outline" mask-type="alpha">
<g id="Clip 10">
<use xlink:href="#path4_fill" transform="translate(3651.96 246.584)" fill="#FFFFFF"/>
</g>
</mask>
<g id="Fill 9" mask="url(#mask1_outline)">
<use xlink:href="#path5_fill" transform="translate(3639.1 293.379)" fill="#000000" fill-opacity="0.3"/>
</g>
<g id="Fill 11" mask="url(#mask1_outline)">
<use xlink:href="#path6_fill" transform="translate(3674.32 244.762)" fill="#000000" fill-opacity="0.2"/>
</g>
</g>
<g id="Fill 13">
<use xlink:href="#path7_fill" transform="translate(3719.85 12.036)" fill="#000000" fill-opacity="0.3"/>
</g>
<g id="Fill 14">
<use xlink:href="#path8_fill" transform="translate(3544.67 7)" fill="#48565B"/>
</g>
<g id="Group 20">
<mask id="mask2_outline" mask-type="alpha">
<g id="Clip 16">
<use xlink:href="#path9_fill" transform="translate(3544.67 7)" fill="#FFFFFF"/>
</g>
</mask>
<g id="Fill 15" mask="url(#mask2_outline)">
<use xlink:href="#path10_fill" transform="translate(3539.9 1.281)" fill="#3A4549"/>
</g>
<g id="Group 19" mask="url(#mask2_outline)">
<mask id="mask3_outline" mask-type="alpha">
<g id="Clip 18">
<use xlink:href="#path11_fill" transform="translate(3637.65 7)" fill="#FFFFFF"/>
</g>
</mask>
<g id="Fill 17" mask="url(#mask3_outline)">
<use xlink:href="#path12_fill" transform="translate(3637.65 1.281)" fill="#000000" fill-opacity="0.2"/>
</g>
</g>
</g>
<g id="Fill 23">
<use xlink:href="#path13_fill" transform="translate(3894.93 162.087)" fill="#000000" fill-opacity="0.3"/>
</g>
<g id="Fill 24">
<use xlink:href="#path14_fill" transform="translate(3796.62 157.961)" fill="#3A4549"/>
</g>
<g id="Group 27">
<mask id="mask4_outline" mask-type="alpha">
<g id="Clip 26">
<use xlink:href="#path15_fill" transform="translate(3828.64 157.961)" fill="#FFFFFF"/>
</g>
</mask>
<g id="Fill 25" mask="url(#mask4_outline)">
<use xlink:href="#path16_fill" transform="translate(3828.64 149.822)" fill="#000000" fill-opacity="0.2"/>
</g>
</g>
<g id="Fill 28">
<use xlink:href="#path17_fill" transform="translate(3765.24 292.298)" fill="#48565B"/>
</g>
<g id="Fill 29">
<use xlink:href="#path18_fill" transform="translate(3765.24 300.633)" fill="#000000" fill-opacity="0.3"/>
</g>
<g id="Fill 30">
<use xlink:href="#path19_fill" transform="translate(4001.1 295.426)" fill="#000000" fill-opacity="0.3"/>
</g>
<g id="Fill 31">
<use xlink:href="#path20_fill" transform="translate(3876.08 292.298)" fill="#000000" fill-opacity="0.3"/>
</g>
<g id="Fill 33">
<use xlink:href="#path21_fill" transform="translate(3424.46 197.829)" fill="#48565B"/>
</g>
<g id="Group 36">
<mask id="mask5_outline" mask-type="alpha">
<g id="Clip 35">
<use xlink:href="#path22_fill" transform="translate(3441.69 197.829)" fill="#FFFFFF"/>
</g>
</mask>
<g id="Fill 34" mask="url(#mask5_outline)">
<use xlink:href="#path23_fill" transform="translate(3441.69 190.176)" fill="#000000" fill-opacity="0.3"/>
</g>
</g>
<g id="Fill 37">
<use xlink:href="#path24_fill" transform="translate(3559.92 243.223)" fill="#000000" fill-opacity="0.3"/>
</g>
<g id="Fill 38">
<use xlink:href="#path25_fill" transform="translate(3430.88 245.648)" fill="#000000" fill-opacity="0.3"/>
</g>
<g id="Fill 40">
<use xlink:href="#path26_fill" transform="translate(3526.46 154.606)" fill="#48565B"/>
</g>
<g id="Group 43">
<mask id="mask6_outline" mask-type="alpha">
<g id="Clip 42">
<use xlink:href="#path27_fill" transform="translate(3526.46 171.835)" fill="#FFFFFF"/>
</g>
</mask>
<g id="Fill 41" mask="url(#mask6_outline)">
<use xlink:href="#path28_fill" transform="translate(3518.8 171.835)" fill="#000000" fill-opacity="0.3"/>
</g>
</g>
<g id="Fill 44">
<use xlink:href="#path29_fill" transform="translate(3571.85 290.065)" fill="#000000" fill-opacity="0.3"/>
</g>
<g id="Fill 45">
<use xlink:href="#path30_fill" transform="translate(3574.28 161.029)" fill="#000000" fill-opacity="0.3"/>
</g>
<g id="Fill 47">
<use xlink:href="#path31_fill" transform="translate(3391 261.567)" fill="#48565B"/>
</g>
<g id="Group 50">
<mask id="mask7_outline" mask-type="alpha">
<g id="Clip 49">
<use xlink:href="#path32_fill" transform="translate(3407.02 261.567)" fill="#FFFFFF"/>
</g>
</mask>
<g id="Fill 48" mask="url(#mask7_outline)">
<use xlink:href="#path33_fill" transform="translate(3407.02 258.587)" fill="#000000" fill-opacity="0.3"/>
</g>
</g>
<g id="Fill 51">
<use xlink:href="#path34_fill" transform="translate(3393.65 278.152)" fill="#000000" fill-opacity="0.3"/>
</g>
</g>
</g>
<defs>
<path id="path0_fill" fill-rule="evenodd" d="M 0 66.7009L 0 4.1944C 0 1.878 1.878 0 4.195 0L 32.112 0C 34.429 0 36.307 1.878 36.307 4.1944L 36.307 66.7009C 36.307 69.0176 34.429 70.8953 32.112 70.8953L 4.195 70.8953C 1.878 70.8953 0 69.0177 0 66.7009ZM 3.57495 61.6567L 32.7314 61.6567L 32.7314 9.5582L 3.57495 9.5582L 3.57495 61.6567Z"/>
<path id="path1_fill" fill-rule="evenodd" d="M 0 0L 0 46.2649C 0 48.5817 1.878 50.4593 4.195 50.4593L 32.112 50.4593C 34.429 50.4593 36.307 48.5816 36.307 46.2649L 36.307 1.42109e-14L 32.7314 5.68434e-14L 32.7314 41.2207L 3.575 41.2207L 3.575 7.10543e-15L 0 5.68434e-14L 0 0Z"/>
<path id="path2_fill" fill-rule="evenodd" d="M 44.141 54.1734L 0 54.1734L 0 44.1413L 44.141 0L 44.141 54.1734Z"/>
<path id="path3_fill" fill-rule="evenodd" d="M 0 4.53739L 0 4.52069C 0 4.24109 0.226 4.01489 0.505 4.01489L 5.748 4.01489C 6.026 4.01489 6.253 4.24109 6.253 4.52069L 6.253 4.53739C 6.253 4.81669 6.026 5.04319 5.748 5.04319L 0.505 5.04319C 0.226 5.04319 0 4.81669 0 4.53739ZM 5.90207 63.6969C 5.90207 65.2306 4.65907 66.473 3.12707 66.473C 1.59407 66.473 0.351074 65.2306 0.351074 63.6969C 0.351074 62.164 1.59407 60.9212 3.12707 60.9212C 4.65907 60.9212 5.90207 62.164 5.90207 63.6969ZM 4.49301 1.3664C 4.49301 2.1217 3.88101 2.7332 3.12601 2.7332C 2.37201 2.7332 1.76001 2.1217 1.76001 1.3664C 1.76001 0.6114 2.37201 0 3.12601 0C 3.88101 0 4.49301 0.6114 4.49301 1.3664Z"/>
<path id="path4_fill" fill-rule="evenodd" d="M 31.196 0L 31.196 38.9958L 0 46.795L 0 50.6946L 138.072 50.6946L 138.072 46.795L 106.876 38.9958L 106.876 0L 31.196 0Z"/>
<path id="path5_fill" fill-rule="evenodd" d="M 0 10.141L 159.911 10.141L 159.911 0L 0 0L 0 10.141Z"/>
<path id="path6_fill" fill-rule="evenodd" d="M 0 40.809L 93.3655 40.809L 93.3655 0L 0 0L 0 40.809Z"/>
<path id="path7_fill" fill-rule="evenodd" d="M 2.29 1.145C 2.29 1.778 1.777 2.29 1.144 2.29C 0.512 2.29 0 1.778 0 1.145C 0 0.513 0.512 0 1.144 0C 1.777 0 2.29 0.513 2.29 1.145Z"/>
<path id="path8_fill" fill-rule="evenodd" d="M 343.719 243.484L 8.937 243.484C 4.001 243.484 0 239.482 0 234.546L 0 8.938C 0 4.001 4.001 0 8.937 0L 343.719 0C 348.655 0 352.656 4.001 352.656 8.938L 352.656 234.546C 352.656 239.482 348.655 243.483 343.719 243.484ZM 12.759 198.145L 339.896 198.145L 339.896 12.722L 12.759 12.722L 12.759 198.145Z"/>
<path id="path9_fill" fill-rule="evenodd" d="M 0 211.673L 0 8.938C 0 4.001 4.001 0 8.937 0L 343.719 0C 348.655 0 352.656 4.001 352.656 8.938L 352.656 211.673L 0 211.673L 0 211.673ZM 12.759 198.145L 339.896 198.145L 339.896 12.722L 12.759 12.722L 12.759 198.145Z"/>
<path id="path10_fill" fill-rule="evenodd" d="M 0 217.039L 0 0L 362.202 0L 362.202 217.039L 0 217.039Z"/>
<path id="path11_fill" fill-rule="evenodd" d="M 0 5.68434e-14L 250.738 5.68434e-14C 255.674 5.68434e-14 259.675 4.001 259.675 8.938L 259.675 211.32L 129.837 211.32L 2.84217e-14 211.32L 1.13687e-13 198.145L 246.915 198.145L 246.915 12.722L 5.68434e-14 12.722L 2.84217e-14 0L 0 5.68434e-14Z"/>
<path id="path12_fill" fill-rule="evenodd" d="M 264.448 217.039L 264.448 0L 217.039 0L 0 217.039L 264.448 217.039Z"/>
<path id="path13_fill" fill-rule="evenodd" d="M 2.495 1.247C 2.495 1.936 1.935 2.494 1.247 2.494C 0.558 2.494 0 1.936 0 1.247C 0 0.558 0.558 0 1.247 0C 1.935 0 2.495 0.558 2.495 1.247Z"/>
<path id="path14_fill" fill-rule="evenodd" d="M 199.103 138.237L 0 138.237L 0 5.046C 0 2.259 2.259 0 5.045 0L 194.057 0C 196.844 0 199.103 2.259 199.103 5.046L 199.103 138.237ZM 9.87012 130.732L 189.233 130.732L 189.233 10.7468L 9.87012 10.7468L 9.87012 130.732Z"/>
<path id="path15_fill" fill-rule="evenodd" d="M 5.68434e-14 138.237L 167.083 138.237L 167.083 5.046C 167.083 2.259 164.824 0 162.037 0L 1.7053e-13 0L 0 10.7468L 157.213 10.7468L 157.213 130.732L 0 130.732L 0 138.237L 5.68434e-14 138.237Z"/>
<path id="path16_fill" fill-rule="evenodd" d="M 0 151.171L 151.172 0L 176.159 0L 176.615 150.548L 0 151.171Z"/>
<path id="path17_fill" fill-rule="evenodd" d="M 0 0L 0 8.3345C 0 8.3345 4.167 13.3747 19.959 13.3747L 241.918 13.3747C 257.709 13.3747 261.877 8.3345 261.877 8.3345L 261.877 0L 0 0Z"/>
<path id="path18_fill" fill-rule="evenodd" d="M 0 0C 0 0 4.167 5.0402 19.959 5.0402L 241.918 5.0402C 257.709 5.0402 261.877 0 261.877 0L 0 0Z"/>
<path id="path19_fill" fill-rule="evenodd" d="M 11.455 0.9569C 11.455 1.4685 11.04 1.8831 10.53 1.8831L 0.925 1.8831C 0.414 1.8831 0 1.4685 0 0.9569L 0 0.9261C 0 0.4145 0.414 0 0.925 0L 10.53 0C 11.04 0 11.455 0.4145 11.455 0.9261L 11.455 0.9569Z"/>
<path id="path20_fill" fill-rule="evenodd" d="M 40.181 0L 40.181 1.1995C 40.181 2.7843 38.896 4.0696 37.311 4.0696L 2.87 4.0696C 1.285 4.0696 0 2.7843 0 1.1995L 0 0L 40.181 0Z"/>
<path id="path21_fill" fill-rule="evenodd" d="M 146.067 7.122L 146.067 91.2606C 146.067 95.1938 142.879 98.3825 138.945 98.3825L 7.1222 98.3825C 3.1883 98.3825 0 95.1938 0 91.2606L 0 7.122C 0 3.188 3.1883 0 7.1222 0L 138.945 0C 142.879 0 146.067 3.188 146.067 7.122Z"/>
<path id="path22_fill" fill-rule="evenodd" d="M 0 98.3825L 121.716 98.3825C 125.65 98.3825 128.838 95.1938 128.838 91.2606L 128.838 7.122C 128.838 3.188 125.65 0 121.716 0L 1.42109e-14 0L 1.42109e-14 5.429L 113.997 5.429L 113.997 92.9538L 2.13163e-14 92.9538L 1.42109e-14 98.3825L 0 98.3825Z"/>
<path id="path23_fill" fill-rule="evenodd" d="M 0 113.689L 113.689 0L 135.108 0L 135.106 113.689L 0 113.689Z"/>
<path id="path24_fill" fill-rule="evenodd" d="M 3.797 0C 5.894 0 7.595 1.7002 7.595 3.7974C 7.595 5.8946 5.894 7.5948 3.797 7.5948C 1.7 7.5948 0 5.8946 0 3.7974C 0 1.7002 1.7 0 3.797 0Z"/>
<path id="path25_fill" fill-rule="evenodd" d="M 0 1.3719C 0 0.6138 0.6146 0 1.3719 0C 2.1288 0 2.7434 0.6138 2.7434 1.3719C 2.7434 2.1292 2.1288 2.7438 1.3719 2.7438C 0.6146 2.7438 0 2.1292 0 1.3719Z"/>
<path id="path26_fill" fill-rule="evenodd" d="M 91.261 146.067L 7.122 146.067C 3.189 146.067 0 142.879 0 138.945L 0 7.122C 0 3.188 3.189 0 7.122 0L 91.261 0C 95.194 0 98.383 3.188 98.383 7.122L 98.383 138.945C 98.383 142.879 95.195 146.067 91.261 146.067ZM 92.954 131.226L 92.954 15.064L 5.42896 15.064L 5.42896 131.226L 92.954 131.226Z"/>
<path id="path27_fill" fill-rule="evenodd" d="M 2.84217e-14 0L 2.84217e-14 121.716C 2.84217e-14 125.65 3.189 128.838 7.122 128.838L 91.261 128.838C 95.195 128.838 98.383 125.65 98.383 121.716L 98.383 0L 92.954 2.84217e-14L 92.954 113.997L 5.429 113.997L 5.429 5.68434e-14L 0 2.84217e-14L 2.84217e-14 0Z"/>
<path id="path28_fill" fill-rule="evenodd" d="M 113.689 0L 0 113.688L 0 135.108L 113.689 135.106L 113.689 0Z"/>
<path id="path29_fill" fill-rule="evenodd" d="M 7.595 3.7974C 7.595 5.8942 5.895 7.5948 3.798 7.5948C 1.7 7.5948 0 5.8942 0 3.7974C 0 1.6998 1.7 0 3.798 0C 5.895 0 7.595 1.6998 7.595 3.7974Z"/>
<path id="path30_fill" fill-rule="evenodd" d="M 1.372 0C 2.13 0 2.743 0.614 2.743 1.372C 2.743 2.129 2.13 2.743 1.372 2.743C 0.614 2.743 0 2.129 0 1.372C 0 0.614 0.614 0 1.372 0Z"/>
<path id="path31_fill" fill-rule="evenodd" d="M 82.2992 44.1063L 4.1944 44.1063C 1.878 44.1063 0 42.2283 0 39.9115L 0 4.1952C 0 1.8781 1.878 0 4.1944 0L 82.2992 0C 84.616 0 86.4936 1.8781 86.4936 4.1952L 86.4936 39.9115C 86.4936 42.2282 84.6161 44.1062 82.2992 44.1063ZM 7.99829 40.531L 78.8148 40.531L 78.8148 3.57541L 7.99829 3.57541L 7.99829 40.531Z"/>
<path id="path32_fill" fill-rule="evenodd" d="M 3.55271e-15 44.1063L 66.2838 44.1063C 68.6007 44.1062 70.4782 42.2282 70.4782 39.9115L 70.4782 4.1952C 70.4782 1.8781 68.6006 0 66.2838 0L 0 0L 0 3.5754L 62.7995 3.5754L 62.7995 40.531L 0 40.531L 0 44.1063L 3.55271e-15 44.1063Z"/>
<path id="path33_fill" fill-rule="evenodd" d="M 74.7133 50.0663L 74.7133 0L 50.0658 0L 0 50.0663L 74.7133 50.0663Z"/>
<path id="path34_fill" fill-rule="evenodd" d="M 1.36635 6.2522L 1.34955 6.2522C 1.06995 6.2522 0.84375 6.0268 0.84375 5.7472L 0.84375 0.5049C 0.84375 0.2261 1.06995 0 1.34955 0L 1.36635 0C 1.64555 0 1.87205 0.2261 1.87205 0.5049L 1.87205 5.7472C 1.87205 6.0268 1.64555 6.2522 1.36635 6.2522ZM 1.3664 8.202C 2.1217 8.202 2.7332 8.8134 2.7332 9.5684C 2.7332 10.3225 2.1217 10.9348 1.3664 10.9348C 0.6114 10.9348 0 10.3225 0 9.5684C 0 8.8134 0.6114 8.202 1.3664 8.202Z"/>
</defs>
</svg>
