<?xml version="1.0" encoding="UTF-8"?>
<svg width="20px" height="21px" viewBox="0 0 20 21" version="1.1" xmlns="http://www.w3.org/2000/svg" xmlns:xlink="http://www.w3.org/1999/xlink">
    <!-- Generator: Sketch 41.1 (35376) - http://www.bohemiancoding.com/sketch -->
    <title>icon link</title>
    <desc>Created with Sketch.</desc>
    <defs></defs>
    <g id="Symbols" stroke="none" stroke-width="1" fill="none" fill-rule="evenodd">
        <g id="icon-link" fill="#009ADD">
            <path d="M9.08857143,6.8927619 C9.36428571,6.89780952 9.63866667,6.92761905 9.90771429,6.98980952 C10.4922857,7.12514286 11.0361905,7.40304762 11.4986667,7.78409524 C11.6520952,7.91057143 11.8075238,8.04466667 11.9304762,8.20209524 C12.041619,8.34438095 12.1259048,8.50752381 12.1779048,8.68057143 C12.2049524,8.7707619 12.2232381,8.86361905 12.2325714,8.95733333 C12.2488571,9.1207619 12.2375238,9.2867619 12.1991429,9.44638095 C12.0726667,9.97266667 11.6529524,10.394381 11.128,10.5255238 C10.9687619,10.5652381 10.802381,10.5774286 10.6389524,10.5625714 C10.3770476,10.5387619 10.1230476,10.4430476 9.91066667,10.288 C9.82114286,10.2224762 9.7447619,10.143619 9.66180952,10.0704762 C9.62285714,10.0387619 9.62314286,10.0389524 9.58314286,10.0092381 C9.50866667,9.95838095 9.43133333,9.91352381 9.34647619,9.88209524 C8.94619048,9.73333333 8.50914286,9.87752381 8.15028571,10.0698095 C8.08647619,10.104 8.024,10.1404762 7.96257143,10.1786667 C7.88485714,10.2268571 7.80838095,10.277619 7.73438095,10.3314286 C7.64514286,10.396381 7.55742857,10.4634286 7.472,10.5334286 C7.36352381,10.622381 7.25933333,10.7159048 7.15647619,10.8112381 L7.08485714,10.8793333 C5.8607619,12.0773333 4.63542857,13.274381 3.43733333,14.4982857 C3.406,14.531619 3.37590476,14.5655238 3.34638095,14.600381 C3.18704762,14.7972381 3.06638095,15.0206667 2.99828571,15.2652381 C2.938,15.4820952 2.91895238,15.71 2.94104762,15.934 C2.96142857,16.1402857 3.01742857,16.3428571 3.10657143,16.53 C3.19028571,16.7054286 3.3027619,16.8667619 3.43742857,17.0069524 C3.56628571,17.1412381 3.71514286,17.256381 3.87809524,17.346381 C4.35257143,17.608381 4.93333333,17.6492381 5.44066667,17.459619 C5.6727619,17.3728571 5.87990476,17.2398095 6.06209524,17.0728571 C6.41666667,16.7291429 6.75142857,16.3646667 7.11514286,16.0306667 C7.28047619,15.8866667 7.46952381,15.7778095 7.6807619,15.7158095 C7.8612381,15.6629524 8.05171429,15.6455238 8.23885714,15.664 C8.38,15.678 8.51847619,15.712381 8.64971429,15.7660952 C9.03571429,15.9240952 9.34257143,16.2484762 9.47895238,16.6426667 C9.52514286,16.7761905 9.55180952,16.9162857 9.558,17.0574286 C9.56533333,17.2217143 9.54495238,17.3870476 9.49771429,17.5445714 C9.43457143,17.7550476 9.32419048,17.9451429 9.17828571,18.1084762 C8.82438095,18.4877143 8.44914286,18.8469524 8.07390476,19.2050476 C7.61019048,19.638 7.06790476,19.9798095 6.47285714,20.2022857 C6.00533333,20.3770476 5.51038095,20.4775238 5.01190476,20.5012381 C4.47657143,20.5266667 3.93657143,20.4628571 3.42228571,20.3119048 C3.01161905,20.1913333 2.6172381,20.016 2.25333333,19.7906667 C1.48057143,19.3119048 0.848285714,18.6098095 0.457238095,17.7886667 C0.206571429,17.2620952 0.056,16.6899048 0.013047619,16.1082857 C-0.033047619,15.4832381 0.043047619,14.8494286 0.240857143,14.2544762 C0.387619048,13.8129524 0.600285714,13.3938095 0.869809524,13.0145714 C1.00685714,12.8218095 1.15895238,12.6424762 1.32066667,12.4701905 C2.54971429,11.2166667 3.80304762,9.98695238 5.05904762,8.76047619 C5.23466667,8.59447619 5.41352381,8.43266667 5.60104762,8.28009524 C6.32438095,7.69161905 7.16152381,7.21447619 8.07628571,7.00495238 C8.33657143,6.94533333 8.5992381,6.91152381 8.86552381,6.89628571 C8.94009524,6.89409524 9.014,6.89238095 9.08857143,6.8927619 Z M14.9138095,0.890761905 C15.2827619,0.909714286 15.6457143,0.965619048 16.0005714,1.06971429 C16.7171429,1.28 17.376381,1.66142857 17.9374286,2.15190476 C18.4169524,2.57114286 18.8214286,3.06828571 19.1101905,3.63752381 C19.4638095,4.33438095 19.6366667,5.11580952 19.617619,5.89666667 C19.6051429,6.40371429 19.512,6.90838095 19.3400952,7.38571429 C19.182381,7.82380952 18.9587619,8.23761905 18.6799048,8.61047619 C18.5618095,8.76847619 18.4328571,8.91647619 18.2981905,9.06047619 C17.0240952,10.356381 15.7188571,11.6212381 14.4287619,12.9011429 C14.2446667,13.0807619 14.0567619,13.2555238 13.8586667,13.4197143 C13.0362857,14.1009524 12.042381,14.634381 10.9619048,14.7185714 C10.7673333,14.7337143 10.5718095,14.7341905 10.3772381,14.7190476 C10.1217143,14.6990476 9.86857143,14.6521905 9.6227619,14.579619 C9.27504762,14.4770476 8.94342857,14.3229524 8.63685714,14.1297143 C8.43047619,13.9995238 8.2352381,13.852 8.05171429,13.6912381 C7.94190476,13.5950476 7.83114286,13.4962857 7.73542857,13.385619 C7.60104762,13.2302857 7.5,13.0466667 7.44095238,12.8499048 C7.39361905,12.692381 7.37314286,12.5268571 7.38038095,12.3624762 C7.38666667,12.2213333 7.4132381,12.0810476 7.45952381,11.9475238 C7.62019048,11.4834286 8.01447619,11.1239048 8.49085714,11.0049524 C8.62752381,10.9708571 8.76952381,10.9569524 8.91019048,10.9631429 C9.20914286,10.976381 9.5,11.082381 9.73714286,11.2642857 C9.838,11.341619 9.92371429,11.4353333 10.0179048,11.5201905 C10.058,11.5545714 10.0986667,11.5867619 10.1413333,11.618 C10.2166667,11.6700952 10.2964762,11.7145714 10.3829524,11.745619 C10.7769524,11.8866667 11.2008571,11.7085714 11.5347619,11.4999048 C11.5985714,11.46 11.6608571,11.4179048 11.7219048,11.3739048 C11.8148571,11.3069524 11.9049524,11.236 11.9924762,11.1620952 C12.0938095,11.0767619 12.1908571,10.9868571 12.2869524,10.8958095 C13.5932381,9.61628571 14.898,8.33485714 16.181619,7.03247619 C16.3250476,6.87885714 16.4449524,6.70742857 16.5310476,6.51504762 C16.7633333,5.99590476 16.733619,5.37666667 16.4508571,4.88304762 C16.3532381,4.71257143 16.228,4.56171429 16.0841905,4.42847619 C16.0180952,4.3672381 15.9491429,4.30914286 15.8773333,4.25466667 C15.4699048,3.94552381 14.935619,3.7372381 14.4220952,3.86590476 C14.1830476,3.92571429 13.9758095,4.05628571 13.7954286,4.22114286 C13.3602857,4.64228571 12.9477143,5.08695238 12.5040952,5.4992381 C12.3384762,5.64342857 12.1491429,5.75304762 11.9374286,5.8147619 C11.7572381,5.8672381 11.5668571,5.88495238 11.38,5.86647619 C11.2390476,5.85247619 11.1002857,5.81771429 10.9691429,5.76409524 C10.5831429,5.60609524 10.2759048,5.28152381 10.1397143,4.8872381 C10.0935238,4.75371429 10.0668571,4.61361905 10.0606667,4.47247619 C10.0534286,4.30828571 10.0739048,4.14295238 10.1211429,3.98552381 C10.184381,3.77495238 10.2947619,3.58495238 10.4408571,3.42142857 C10.8433333,2.99038095 11.2765714,2.5892381 11.6951429,2.17380952 C11.9452381,1.93114286 12.214,1.71142857 12.5105714,1.52752381 C12.9793333,1.2367619 13.5028571,1.03714286 14.0469524,0.945714286 C14.262,0.90952381 14.4781905,0.893047619 14.696,0.888 C14.8052381,0.888 14.8047619,0.888 14.9138095,0.890761905 Z" id="Combined-Shape"></path>
        </g>
    </g>
</svg>