<?xml version="1.0" encoding="UTF-8"?>
<svg width="20px" height="22px" viewBox="0 0 20 22" version="1.1" xmlns="http://www.w3.org/2000/svg" xmlns:xlink="http://www.w3.org/1999/xlink">
    <!-- Generator: Sketch 41.1 (35376) - http://www.bohemiancoding.com/sketch -->
    <title>icon tech</title>
    <desc>Created with Sketch.</desc>
    <defs></defs>
    <g id="Symbols" stroke="none" stroke-width="1" fill="none" fill-rule="evenodd">
        <g id="icon-tech" fill="#009ADD">
            <path d="M19.5356333,13.1813477 L17.6767527,11.8013156 C17.6813878,11.773148 17.6847751,11.7448022 17.689232,11.7164564 C17.691193,11.7048685 17.6926192,11.6931023 17.694402,11.6816926 C17.7125861,11.5613565 17.7279178,11.4411987 17.7402188,11.3208626 C17.7409319,11.3144447 17.7414668,11.3083833 17.7421799,11.3019654 C17.7548374,11.1764593 17.7644643,11.050775 17.770704,10.9250906 C17.7712388,10.9197423 17.7714171,10.9140375 17.7715953,10.9086892 C17.7776567,10.7842528 17.781044,10.6598164 17.7812222,10.53538 C17.7812222,10.5291403 17.7815788,10.5229007 17.7815788,10.516661 C17.7815788,10.5097083 17.7812222,10.5027555 17.7812222,10.4958028 C17.7812222,10.4687049 17.7817571,10.4412504 17.7814005,10.4141525 C17.7812222,10.4091608 17.7814005,10.4041691 17.7814005,10.3989991 C17.7805091,10.3448032 17.7781915,10.290964 17.7762305,10.2367682 C17.7748043,10.2032524 17.7731998,10.1700931 17.7715953,10.1367555 C17.7680298,10.070437 17.765534,10.0041184 17.7605422,9.93797813 C17.7598291,9.93120366 17.7589378,9.92425091 17.7585812,9.91747643 C17.7569767,9.89804438 17.7550157,9.87843405 17.7537678,9.85918028 C17.7507371,9.82405997 17.7466367,9.78893966 17.7432495,9.75381935 C17.7423581,9.7461535 17.741645,9.73848764 17.7409319,9.73100006 C17.7403971,9.72672145 17.7400405,9.72208628 17.7395057,9.71780766 C17.7375447,9.70015837 17.7361185,9.6823308 17.7343357,9.66468151 C17.7318399,9.6427536 17.7305919,9.62082569 17.7279178,9.59907605 C17.7264916,9.58766641 17.7247088,9.57643504 17.7236392,9.56520367 C17.7220347,9.55290265 17.7198954,9.54024508 17.7182909,9.52794406 C17.7070595,9.43755828 17.694402,9.34752906 17.6797834,9.25803467 C17.6785354,9.25019054 17.6780006,9.24234641 17.6767527,9.23450228 L19.5381291,7.85250916 C19.9798963,7.59757492 20.1310741,7.03297583 19.8761398,6.59138695 L18.3374424,3.92634372 C18.0825081,3.48475484 17.5177308,3.33357706 17.0763202,3.58851129 L14.9484216,4.50966176 C14.9366554,4.4998566 14.9238195,4.49147764 14.9120533,4.48202903 C14.9065268,4.47757214 14.9011785,4.47311525 14.895652,4.46865835 C14.8681975,4.44637389 14.8398517,4.42498081 14.8118624,4.4030529 C14.7813773,4.37898568 14.7510704,4.35527502 14.720407,4.33209918 C14.6952701,4.31302368 14.669955,4.29448301 14.6448181,4.27576406 C14.6332302,4.26685028 14.6211074,4.25811477 14.6093412,4.24937926 C14.5886612,4.23422583 14.5685161,4.21835929 14.5476578,4.20338413 C14.5362482,4.19500517 14.5248385,4.18680449 14.5132506,4.17842554 C14.48437,4.15792383 14.4551327,4.13813523 14.4258955,4.11799008 C14.4185862,4.11299836 14.4112769,4.10765009 14.4037894,4.10265837 C14.3911318,4.09392286 14.3782959,4.08518735 14.3656384,4.07663012 C14.3230305,4.04757118 14.2802443,4.01904707 14.2371016,3.99087951 C14.2322881,3.98784883 14.2272964,3.98481814 14.222483,3.98160918 C14.1518858,3.9359706 14.0809321,3.89104513 14.0089087,3.84772414 C13.9905463,3.83667105 13.9721839,3.82633106 13.9536432,3.81545624 C13.7988999,3.72400081 13.6413042,3.63735883 13.480143,3.55677822 C13.4769341,3.55517374 13.4740816,3.55374753 13.4706944,3.55232133 C13.2619336,3.44803005 13.0476462,3.35318738 12.8285454,3.26743678 C12.822484,3.26511919 12.8164226,3.26280161 12.8103613,3.26030575 C12.782372,3.24943093 12.754561,3.23766474 12.7265717,3.2269682 L12.4604061,0.923289779 C12.4605844,0.413421317 12.0473413,0 11.5372946,0 L8.4606128,0 C7.95074433,0 7.53750129,0.413243041 7.53750129,0.923289779 L7.27133569,3.2269682 C7.2588564,3.23160337 7.24691192,3.23695164 7.23443263,3.2415868 C7.2199923,3.24711335 7.20537369,3.25299645 7.19093336,3.25887955 C7.10589586,3.29186055 7.02174973,3.3259112 6.93831671,3.36174462 C6.92334155,3.36798427 6.9083664,3.37493702 6.89356951,3.38135494 C6.81798062,3.41433594 6.74274828,3.44820832 6.66822905,3.48332863 C6.66038492,3.48707242 6.65254079,3.49099449 6.64469666,3.49473828 C6.63489149,3.49937345 6.62508633,3.50383034 6.61528117,3.50846551 C6.58800499,3.52165791 6.56090708,3.53520686 6.53380918,3.54875581 C6.47123441,3.57995406 6.40937275,3.61204368 6.34786764,3.64502468 C6.30329872,3.66873535 6.25837324,3.69208946 6.2139826,3.71651323 C6.18599332,3.73220149 6.15853886,3.74895941 6.13072785,3.76482594 C6.12858854,3.7658956 6.12644924,3.7673218 6.12430993,3.76856973 C6.11913993,3.77160042 6.11361339,3.77373973 6.10862167,3.77677041 C6.09952961,3.78194041 6.09115065,3.78800178 6.08223687,3.7929935 C5.9815111,3.85146793 5.88221155,3.91225994 5.78415992,3.97536953 C5.77292855,3.98250056 5.76187546,3.98963158 5.75082237,3.99694089 C5.739591,4.00425019 5.72800308,4.01155949 5.71659343,4.0188688 C5.71338447,4.02118638 5.70999723,4.02296914 5.70696655,4.02510845 C5.62317697,4.08055218 5.54063533,4.13777868 5.45880679,4.19643138 C5.44739715,4.20463206 5.43580923,4.21283274 5.42439958,4.2212117 C5.33294416,4.28753026 5.24273666,4.3561664 5.15395537,4.42658529 C5.13862366,4.43870804 5.12311367,4.45100906 5.10796024,4.46331008 C5.08852819,4.47917662 5.06856131,4.4939735 5.04930754,4.51001831 L2.92426136,3.59011577 C2.48267248,3.33518154 1.91789511,3.4865376 1.66296088,3.92812647 L0.123906878,6.59263488 C-0.131205629,7.03458031 0.0203287042,7.5991794 0.461739304,7.85411364 L2.32097644,9.234324 C2.31723265,9.25660846 2.31455851,9.2790712 2.310993,9.30135566 C2.30707093,9.32684908 2.30332714,9.35216423 2.29976163,9.37765765 C2.28425164,9.48355341 2.27052442,9.58927089 2.25929305,9.69498837 C2.25715374,9.71584663 2.25519271,9.73652661 2.2530534,9.75756314 C2.24378306,9.85222753 2.23593893,9.94707019 2.23023411,10.0417346 C2.22987756,10.0490439 2.22952101,10.0565315 2.22916446,10.0638408 C2.22862963,10.0718632 2.22845135,10.0798856 2.22791653,10.087908 C2.2266686,10.1087662 2.22577722,10.1298028 2.22470757,10.1508393 C2.21971585,10.2586961 2.21704171,10.3667312 2.21668516,10.4744097 C2.21650688,10.4895631 2.21543723,10.5041817 2.21543723,10.5193351 C2.21543723,10.5357365 2.21632861,10.5523161 2.21632861,10.5687175 C2.21632861,10.580662 2.21615033,10.5927847 2.21632861,10.6047292 C2.21632861,10.6177433 2.21597206,10.6307575 2.21632861,10.6439499 C2.21704171,10.6879839 2.21900274,10.7321963 2.22060722,10.7762304 C2.22238998,10.8334569 2.22542067,10.8905051 2.22845135,10.9473751 C2.23112549,10.9953312 2.23308652,11.0431091 2.23665204,11.090887 C2.23718686,11.0976615 2.23772169,11.1046142 2.23807824,11.1113887 C2.239861,11.1350994 2.24200031,11.15881 2.24396134,11.1821641 C2.2464572,11.2126493 2.25002271,11.2429562 2.25287512,11.273263 C2.25947132,11.3418992 2.26606752,11.410357 2.27444648,11.4782801 C2.27444648,11.4791714 2.27480303,11.4802411 2.27480303,11.4811325 C2.28728233,11.5825713 2.30172266,11.6834754 2.3183023,11.7838446 C2.31919368,11.7895494 2.31955023,11.7954325 2.32061988,11.8014939 L0.461917579,13.1817042 C0.0201504285,13.4366385 -0.131027353,14.0012376 0.124085154,14.4426482 L1.66260433,17.1076914 C1.91753856,17.5494586 2.48231593,17.7006363 2.92372653,17.4457021 L5.04841616,16.5265127 C5.06303477,16.5386354 5.07854475,16.5487971 5.09316336,16.5605633 C5.09565922,16.5628809 5.09851163,16.5644854 5.10100749,16.5664464 C5.10100749,16.566803 5.10136404,16.566803 5.10136404,16.5669813 C5.12418333,16.5855219 5.14771572,16.6033495 5.17089156,16.6217119 C5.2072598,16.6504143 5.24362804,16.6791167 5.2805311,16.7071059 C5.30192419,16.7235073 5.32349554,16.7391956 5.3450669,16.7554187 C5.37341274,16.7764552 5.4015803,16.7978483 5.43028268,16.8187065 C5.43349164,16.8210241 5.43634405,16.8231634 5.43937474,16.8256593 C5.45292369,16.8354644 5.46611609,16.8452696 5.47984332,16.8548965 C5.51282432,16.8784289 5.54651843,16.9010699 5.57985598,16.9238892 C5.58270839,16.9262068 5.58573908,16.9279895 5.58859149,16.9297723 C5.60178389,16.9390426 5.61479802,16.9481347 5.62799042,16.9568702 C5.74476099,17.0363811 5.8634926,17.113218 5.98489834,17.186311 C6.00611315,17.1989686 6.02732795,17.2112696 6.04854276,17.2233923 C6.20061192,17.3132433 6.35571177,17.3982808 6.51419885,17.47797 C6.51954712,17.4808224 6.52507367,17.48314 6.53042194,17.4859924 C6.77038102,17.6054371 7.01693629,17.7141853 7.27008776,17.809028 L7.53607509,20.1094974 C7.53607509,20.6191876 7.94931813,21.0327872 8.45936487,21.0327872 L11.5365815,21.0329655 C12.0462717,21.0327872 12.4598713,20.6197224 12.4598713,20.1094974 L12.7260369,17.8086714 C12.739051,17.803858 12.7515303,17.7983314 12.7645444,17.793518 C12.7773803,17.7887045 12.7902161,17.783178 12.8028737,17.7781863 C12.8886243,17.745027 12.9738401,17.7106198 13.0581645,17.6746081 C13.0747441,17.6676553 13.0911455,17.6599895 13.1075468,17.6528585 C13.1827792,17.6198775 13.257655,17.5863616 13.3314611,17.5514196 C13.3384139,17.5478541 13.3455449,17.5444668 13.3524976,17.5409013 C13.3530325,17.5407231 13.3537456,17.5403665 13.3544587,17.5400099 C13.3623028,17.5362662 13.3705035,17.5328789 13.3783476,17.5287786 C13.4074065,17.5146948 13.4364655,17.5004327 13.4651679,17.4859924 C13.526673,17.4555073 13.5872867,17.4237742 13.6475439,17.3916846 C13.693539,17.3672608 13.7395341,17.3435501 13.7849944,17.3184133 C13.8081703,17.3055774 13.8309896,17.2916719 13.8539871,17.2783012 C13.861653,17.2740226 13.8694971,17.2692092 13.877163,17.2647523 C13.881085,17.262613 13.8851854,17.2610085 13.8889292,17.2586909 C13.8957036,17.2549471 13.9019433,17.2504902 13.9087178,17.2467464 C14.0135439,17.1859544 14.117122,17.1226666 14.2190957,17.0568828 C14.2265833,17.0520694 14.2338926,17.0470777 14.2413802,17.0426208 C14.2572467,17.0321025 14.2732915,17.0222974 14.2889798,17.0117791 C14.375087,16.9550874 14.4603027,16.8960782 14.5444489,16.8356427 C14.5528278,16.8297596 14.5608502,16.8238765 14.5690509,16.8176369 C14.6637153,16.7490007 14.75731,16.6782253 14.8489437,16.6051323 C14.861423,16.5953271 14.8740806,16.5855219 14.8862034,16.5757168 C14.9068833,16.5586023 14.9282764,16.5425575 14.9489564,16.5256213 L17.0740026,17.4453456 C17.5157697,17.7004581 18.0803688,17.5489237 18.3351248,17.1073349 L19.8738222,14.4424699 C20.1283999,14.000881 19.9772221,13.4362819 19.5356333,13.1813477 L19.5356333,13.1813477 Z M9.99998948,14.9481088 C7.55256375,14.9481088 5.56839724,12.9641884 5.56839724,10.5165166 C5.56839724,8.06884486 7.55256375,6.08467835 9.99998948,6.08467835 C12.4474152,6.08467835 14.4318277,8.06909088 14.4318277,10.5165166 C14.4318277,12.9639423 12.4474152,14.9481088 9.99998948,14.9481088 L9.99998948,14.9481088 Z" id="Shape"></path>
        </g>
    </g>
</svg>