<?xml version="1.0" encoding="UTF-8"?>
<svg width="30px" height="30px" viewBox="0 0 30 30" version="1.1" xmlns="http://www.w3.org/2000/svg" xmlns:xlink="http://www.w3.org/1999/xlink">
    <!-- Generator: Sketch 41.1 (35376) - http://www.bohemiancoding.com/sketch -->
    <title>icon_twitter</title>
    <desc>Created with Sketch.</desc>
    <defs></defs>
    <g id="Symbols" stroke="none" stroke-width="1" fill="none" fill-rule="evenodd">
        <g id="icon_twitter">
            <path d="M28.5020313,0 C29.3293366,0 30,0.66865487 30,1.49796872 L30,28.5020313 C30,29.3293366 29.3313452,30 28.5020313,30 L1.49796872,30 C0.67066344,30 0,29.3313452 0,28.5020313 L0,1.49796872 C0,0.67066344 0.66865487,0 1.49796872,0 L28.5020313,0 Z" id="square" fill="#106D95"></path>
            <path d="M21.8911901,7.50071368 C21.1371771,6.64345564 20.0627791,6.09726658 18.8737276,6.07747497 C16.5907327,6.03947479 14.7396529,7.96862442 14.7396529,10.3861688 C14.7396529,10.7292766 14.7762252,11.0638568 14.8467502,11.3850447 C11.4109738,11.1621873 8.36479758,9.37308005 6.32591989,6.67621205 C5.9700709,7.32244263 5.7661529,8.07774488 5.7661529,8.88683835 C5.7661529,10.4185211 6.49598589,11.7778787 7.60524337,12.5804998 C6.92759888,12.5505829 6.29015364,12.3454436 5.73280466,12.0089091 C5.73240166,12.0273036 5.73240166,12.0457024 5.73240166,12.0644241 C5.73240166,14.2034249 7.15740963,15.9978809 9.04858786,16.4158974 C8.70170557,16.5141908 8.33648684,16.5656317 7.95948036,16.5631318 C7.69309737,16.5613654 7.43406912,16.5318249 7.18169038,16.4787839 C7.70770611,18.2329817 9.23437084,19.5130369 11.0434378,19.5553616 C9.62860558,20.7298134 7.84613661,21.4292803 5.9092179,21.4252848 C5.57553391,21.4245964 5.24648442,21.4030346 4.92307693,21.3615515 C6.75259614,22.6168622 8.92557209,23.3477384 11.260151,23.3483508 C18.8640556,23.3503458 23.0223103,16.7330892 23.0223103,10.9934267 C23.0223103,10.8051143 23.0181796,10.6178094 23.0103211,10.4314088 C23.8180338,9.82955655 24.5188508,9.07496758 25.0730765,8.21329546 C24.3317581,8.54746703 23.5349263,8.76940883 22.6988021,8.86250664 C23.5522553,8.33725155 24.2078355,7.49659844 24.5164328,6.48850405 C23.717586,6.97294557 22.8329003,7.32035399 21.8911901,7.50071368 L21.8911901,7.50071368 Z" id="square" fill="#FFFFFF"></path>
        </g>
    </g>
</svg>