<?xml version="1.0" encoding="UTF-8"?>
<svg width="20px" height="20px" viewBox="0 0 20 20" version="1.1" xmlns="http://www.w3.org/2000/svg" xmlns:xlink="http://www.w3.org/1999/xlink">
    <!-- Generator: Sketch 49 (51002) - http://www.bohemiancoding.com/sketch -->
    <title>icon functie</title>
    <desc>Created with Sketch.</desc>
    <defs></defs>
    <g id="icon-functie" stroke="none" stroke-width="1" fill="none" fill-rule="evenodd">
        <path d="M8,15.0058931 L8,13.7101213 C5.10851105,12.8495721 3,10.1710206 3,7 C3,3.13400675 6.13400675,0 10,0 C13.8659932,0 17,3.13400675 17,7 C17,10.1710206 14.8914889,12.8495721 12,13.7101213 L12,15.0058932 C15.0434786,15.1298647 17.5860446,17.1970521 18.4202426,20 L5,20 L1,20 C1.86054919,17.1085111 4.53910068,15 7.71012132,15 C7.807222,15 7.90386092,15.0019771 8,15.0058932 Z M7.5,8 C8.32842712,8 9,7.32842712 9,6.5 C9,5.67157288 8.32842712,5 7.5,5 C6.67157288,5 6,5.67157288 6,6.5 C6,7.32842712 6.67157288,8 7.5,8 Z M12.5,8 C13.3284271,8 14,7.32842712 14,6.5 C14,5.67157288 13.3284271,5 12.5,5 C11.6715729,5 11,5.67157288 11,6.5 C11,7.32842712 11.6715729,8 12.5,8 Z" id="Combined-Shape" fill="#009ADC"></path>
    </g>
</svg>