<svg width="100%" height="100%" viewBox="0 0 20 20" version="1.1" xmlns="http://www.w3.org/2000/svg" xmlns:xlink="http://www.w3.org/1999/xlink" xml:space="preserve" xmlns:serif="http://www.serif.com/" style="fill-rule:evenodd;clip-rule:evenodd;stroke-linejoin:round;stroke-miterlimit:1.41421;"><rect id="Artboard2" x="0" y="0" width="20" height="20" style="fill:none;"/><path d="M19.067,12.534L17.3,11.222C17.304,11.195 17.307,11.168 17.312,11.141C17.313,11.13 17.315,11.119 17.317,11.108C17.334,10.994 17.348,10.879 17.36,10.765C17.361,10.759 17.361,10.753 17.362,10.747C17.374,10.628 17.383,10.508 17.389,10.389C17.39,10.383 17.39,10.378 17.39,10.373C17.396,10.255 17.399,10.136 17.399,10.018C17.399,10.012 17.399,10.006 17.399,10C17.399,9.994 17.399,9.987 17.399,9.98C17.399,9.955 17.4,9.928 17.399,9.903C17.399,9.898 17.399,9.893 17.399,9.888C17.398,9.837 17.396,9.786 17.394,9.734C17.393,9.702 17.391,9.671 17.39,9.639C17.387,9.576 17.384,9.513 17.379,9.45C17.379,9.443 17.378,9.437 17.378,9.43C17.376,9.412 17.374,9.393 17.373,9.375C17.37,9.342 17.366,9.308 17.363,9.275L17.359,9.241C17.358,9.224 17.356,9.207 17.354,9.19C17.352,9.169 17.351,9.148 17.348,9.128C17.347,9.117 17.345,9.106 17.344,9.095C17.343,9.084 17.341,9.072 17.339,9.06C17.329,8.974 17.317,8.888 17.303,8.803C17.301,8.796 17.301,8.788 17.3,8.781L19.07,7.467C19.49,7.224 19.634,6.688 19.391,6.268L17.928,3.734C17.686,3.314 17.149,3.17 16.729,3.412L14.705,4.288C14.694,4.279 14.682,4.271 14.671,4.262C14.666,4.258 14.66,4.253 14.655,4.249C14.629,4.228 14.602,4.208 14.576,4.187C14.547,4.164 14.518,4.141 14.489,4.119C14.465,4.101 14.441,4.084 14.417,4.066C14.406,4.057 14.394,4.049 14.383,4.041C14.363,4.026 14.344,4.011 14.324,3.997C14.313,3.989 14.303,3.981 14.292,3.973C14.264,3.954 14.236,3.935 14.209,3.916C14.202,3.911 14.195,3.906 14.188,3.901C14.175,3.893 14.163,3.885 14.151,3.876C14.111,3.849 14.07,3.822 14.029,3.795C14.024,3.792 14.02,3.789 14.015,3.786C13.948,3.743 13.881,3.7 13.812,3.659C13.795,3.648 13.777,3.638 13.759,3.628C13.612,3.541 13.462,3.459 13.309,3.382C13.306,3.381 13.303,3.379 13.3,3.378C13.102,3.279 12.898,3.189 12.69,3.107C12.684,3.105 12.678,3.103 12.672,3.1C12.646,3.09 12.619,3.079 12.593,3.068L12.34,0.878C12.34,0.393 11.947,0 11.462,0L8.536,0C8.051,0 7.658,0.393 7.658,0.878L7.405,3.068C7.393,3.073 7.382,3.078 7.37,3.082C7.357,3.088 7.343,3.093 7.329,3.099C7.248,3.13 7.168,3.163 7.089,3.197C7.074,3.203 7.06,3.209 7.046,3.215C6.974,3.247 6.903,3.279 6.832,3.312C6.824,3.316 6.817,3.32 6.809,3.323C6.8,3.328 6.791,3.332 6.782,3.336C6.756,3.349 6.73,3.362 6.704,3.374C6.645,3.404 6.586,3.435 6.527,3.466C6.485,3.489 6.442,3.511 6.4,3.534C6.373,3.549 6.347,3.565 6.321,3.58C6.319,3.581 6.317,3.582 6.315,3.583C6.31,3.586 6.304,3.588 6.3,3.591C6.291,3.596 6.283,3.602 6.275,3.607C6.179,3.662 6.084,3.72 5.991,3.78C5.981,3.787 5.97,3.794 5.96,3.801C5.949,3.808 5.938,3.815 5.927,3.821C5.924,3.824 5.921,3.825 5.918,3.827C5.838,3.88 5.76,3.935 5.682,3.99C5.671,3.998 5.66,4.006 5.649,4.014C5.562,4.077 5.476,4.142 5.392,4.209C5.377,4.221 5.363,4.232 5.348,4.244C5.33,4.259 5.311,4.273 5.292,4.289L3.272,3.414C2.852,3.171 2.315,3.315 2.072,3.735L0.609,6.269C0.366,6.689 0.51,7.226 0.93,7.468L2.698,8.781C2.695,8.802 2.692,8.823 2.689,8.845C2.685,8.869 2.681,8.893 2.678,8.917C2.663,9.018 2.65,9.118 2.639,9.219C2.637,9.239 2.636,9.258 2.634,9.278C2.625,9.368 2.617,9.459 2.612,9.549C2.611,9.556 2.611,9.563 2.611,9.57C2.61,9.577 2.61,9.585 2.61,9.592C2.608,9.612 2.608,9.632 2.607,9.652C2.602,9.755 2.599,9.858 2.599,9.96C2.599,9.974 2.598,9.988 2.598,10.003C2.598,10.018 2.599,10.034 2.599,10.05C2.599,10.061 2.598,10.073 2.599,10.084C2.599,10.096 2.598,10.109 2.599,10.121C2.599,10.163 2.601,10.205 2.603,10.247C2.604,10.301 2.607,10.356 2.61,10.41C2.613,10.455 2.615,10.501 2.618,10.546C2.618,10.553 2.619,10.559 2.619,10.566C2.621,10.588 2.623,10.611 2.625,10.633C2.627,10.662 2.631,10.691 2.633,10.72C2.64,10.785 2.646,10.85 2.654,10.915C2.654,10.915 2.654,10.916 2.654,10.917C2.666,11.014 2.68,11.11 2.696,11.205C2.696,11.211 2.697,11.216 2.698,11.222L0.93,12.534C0.51,12.777 0.367,13.314 0.609,13.733L2.072,16.268C2.314,16.688 2.852,16.831 3.271,16.589L5.292,15.715C5.305,15.726 5.32,15.736 5.334,15.747C5.337,15.749 5.339,15.751 5.342,15.753C5.342,15.753 5.342,15.753 5.342,15.753C5.364,15.771 5.386,15.788 5.408,15.805C5.443,15.833 5.477,15.86 5.512,15.887C5.533,15.902 5.553,15.917 5.574,15.933C5.601,15.953 5.627,15.973 5.655,15.993C5.658,15.995 5.66,15.997 5.663,15.999C5.676,16.009 5.689,16.018 5.702,16.027C5.733,16.05 5.765,16.071 5.797,16.093C5.8,16.095 5.803,16.097 5.805,16.098C5.818,16.107 5.83,16.116 5.843,16.124C5.954,16.2 6.067,16.273 6.182,16.342C6.202,16.354 6.222,16.366 6.243,16.378C6.387,16.463 6.535,16.544 6.685,16.62C6.69,16.622 6.696,16.625 6.701,16.627C6.929,16.741 7.163,16.844 7.404,16.934L7.657,19.122C7.657,19.607 8.05,20 8.535,20L11.461,20C11.946,20 12.339,19.607 12.339,19.122L12.592,16.934C12.605,16.929 12.616,16.924 12.629,16.92C12.641,16.915 12.653,16.91 12.665,16.905C12.747,16.874 12.828,16.841 12.908,16.807C12.924,16.8 12.939,16.793 12.955,16.786C13.026,16.755 13.098,16.723 13.168,16.689L13.19,16.679C13.197,16.675 13.205,16.672 13.212,16.668C13.24,16.655 13.268,16.641 13.295,16.627C13.353,16.598 13.411,16.568 13.468,16.538C13.512,16.514 13.556,16.492 13.599,16.468C13.621,16.456 13.643,16.442 13.665,16.43C13.672,16.426 13.679,16.421 13.687,16.417C13.69,16.415 13.694,16.413 13.698,16.411C13.704,16.408 13.71,16.403 13.717,16.4C13.816,16.342 13.915,16.282 14.012,16.219C14.019,16.215 14.026,16.21 14.033,16.206C14.048,16.196 14.063,16.186 14.078,16.176C14.16,16.122 14.241,16.066 14.321,16.009C14.329,16.003 14.337,15.998 14.345,15.992C14.435,15.926 14.524,15.859 14.611,15.79C14.623,15.78 14.635,15.771 14.646,15.762C14.666,15.745 14.686,15.73 14.706,15.714L16.727,16.589C17.147,16.831 17.684,16.687 17.926,16.267L19.389,13.733C19.631,13.313 19.487,12.776 19.067,12.534ZM10,14.214C7.673,14.214 5.786,12.327 5.786,10C5.786,7.673 7.673,5.786 10,5.786C12.327,5.786 14.214,7.673 14.214,10C14.214,12.327 12.327,14.214 10,14.214Z" style="fill:#009adc;"/></svg>