<?xml version="1.0" encoding="UTF-8" standalone="no"?><!DOCTYPE svg PUBLIC "-//W3C//DTD SVG 1.1//EN" "http://www.w3.org/Graphics/SVG/1.1/DTD/svg11.dtd"><svg width="100%" height="100%" viewBox="0 0 662 302" version="1.1" xmlns="http://www.w3.org/2000/svg" xmlns:xlink="http://www.w3.org/1999/xlink" xml:space="preserve" xmlns:serif="http://www.serif.com/" style="fill-rule:evenodd;clip-rule:evenodd;stroke-linejoin:round;stroke-miterlimit:1.41421;"><rect id="Artboard1" x="0" y="0" width="662" height="302" style="fill:none;"/><clipPath id="_clip1"><rect x="0" y="0" width="662" height="302"/></clipPath><g clip-path="url(#_clip1)"><g id="mobile-staand" serif:id="mobile staand"><path d="M657.805,293.514L629.888,293.514C627.571,293.514 625.693,291.637 625.693,289.32L625.693,226.813C625.693,224.497 627.571,222.619 629.888,222.619L657.805,222.619C660.122,222.619 662,224.497 662,226.813L662,289.32C662,291.637 660.122,293.514 657.805,293.514ZM658.424,232.177L629.268,232.177L629.268,284.276L658.424,284.276L658.424,232.177Z" style="fill:#48565b;"/><path d="M658.424,250.548L662,246.972L662,289.32C662,291.637 660.122,293.514 657.805,293.514L629.888,293.514C627.571,293.514 625.693,291.637 625.693,289.32L625.693,283.279L629.268,279.704L629.268,284.276L658.424,284.276L658.424,250.548Z" style="fill:#323c40;"/><path d="M640.72,229.804L640.72,229.788C640.72,229.508 640.946,229.282 641.225,229.282L646.468,229.282C646.746,229.282 646.973,229.508 646.973,229.788L646.973,229.804C646.973,230.084 646.746,230.31 646.468,230.31L641.225,230.31C640.946,230.31 640.72,230.084 640.72,229.804ZM645.213,226.633C645.213,227.389 644.601,228 643.846,228C643.092,228 642.48,227.389 642.48,226.633C642.48,225.878 643.092,225.267 643.846,225.267C644.601,225.267 645.213,225.878 645.213,226.633Z" style="fill:#323c40;"/><path d="M645.958,288.505C645.958,289.672 645.012,290.617 643.847,290.617C642.681,290.617 641.735,289.672 641.735,288.505C641.735,287.339 642.681,286.393 643.847,286.393C645.012,286.393 645.958,287.339 645.958,288.505Z" style="fill:#1d272b;"/></g><g id="desktop"><path d="M303.346,239.354L293.355,278.312L262.189,286.104L262.189,290L400.129,290L400.129,286.104L368.963,278.312L358.972,239.354L303.346,239.354Z" style="fill:#48565b;"/><rect x="293.355" y="239.354" width="75.607" height="38.958" style="fill:#323c40;"/><rect x="262.189" y="286.109" width="137.94" height="3.891" style="fill:#323c40;"/><path d="M418.337,197.955L418.337,243.25L231.482,243.25L231.482,197.955L418.337,197.955ZM167.747,162.312L155,162.312L155,8.929C155,3.997 158.997,0 163.928,0L498.389,0C503.32,0 507.318,3.997 507.318,8.929L507.318,164.768L494.57,164.768L494.57,12.71L167.747,12.71L167.747,162.312Z" style="fill:#48565b;"/><path d="M418.337,197.955L418.337,211.117L231.482,211.117L231.482,197.955L418.337,197.955ZM167.747,162.312L155,162.312L155,8.929C155,3.997 158.997,0 163.928,0L498.389,0C503.32,0 507.318,3.997 507.318,8.929L507.318,164.768L494.57,164.768L494.57,12.71L167.747,12.71L167.747,162.312Z" style="fill:#323c40;"/><path d="M418.337,197.955L418.337,211.117L247.892,211.117L261.054,197.955L418.337,197.955ZM494.57,164.768L494.57,12.71L446.299,12.71L459.009,0L498.389,0C503.32,0 507.318,3.997 507.318,8.929L507.318,164.768L494.57,164.768Z" style="fill:#1d272b;"/><path d="M332.303,6.175C332.303,6.807 331.79,7.319 331.158,7.319C330.526,7.319 330.015,6.807 330.015,6.175C330.015,5.544 330.526,5.031 331.158,5.031C331.79,5.031 332.303,5.544 332.303,6.175Z" style="fill:#1d272b;"/></g><g id="laptop"><path d="M607.939,292.506L408.448,292.506L408.448,159.056C408.448,156.263 410.712,154 413.503,154L602.884,154C605.676,154 607.939,156.263 607.939,159.056L607.939,292.506ZM598.05,284.987L598.05,164.768L418.337,164.768L418.337,284.987L598.05,284.987Z" style="fill:#323c40;"/><path d="M573.075,164.768L583.842,154L602.884,154C605.676,154 607.939,156.263 607.939,159.056L607.939,292.506L445.335,292.506L452.855,284.987L598.05,284.987L598.05,164.768L573.075,164.768Z" style="fill:#1d272b;"/><path d="M509.444,159.383C509.444,160.074 508.883,160.633 508.193,160.633C507.503,160.633 506.944,160.074 506.944,159.383C506.944,158.693 507.503,158.134 508.193,158.134C508.883,158.134 509.444,158.693 509.444,159.383Z" style="fill:#1d272b;"/><path d="M377,288.599L377,296.95C377,296.95 381.175,302 396.998,302L619.39,302C635.211,302 639.388,296.95 639.388,296.95L639.388,288.599L377,288.599Z" style="fill:#48565b;"/><path d="M377,296.95C377,296.95 381.175,302 396.998,302L619.39,302C635.211,302 639.388,296.95 639.388,296.95L377,296.95Z" style="fill:#323c40;"/><path d="M624.805,292.692C624.805,293.204 624.389,293.62 623.878,293.62L614.255,293.62C613.743,293.62 613.328,293.204 613.328,292.692L613.328,292.661C613.328,292.148 613.743,291.733 614.255,291.733L623.878,291.733C624.389,291.733 624.805,292.148 624.805,292.661L624.805,292.692Z" style="fill:#323c40;"/><path d="M528.323,288.599L528.323,289.801C528.323,291.389 527.036,292.677 525.448,292.677L490.94,292.677C489.352,292.677 488.064,291.389 488.064,289.801L488.064,288.599L528.323,288.599Z" style="fill:#323c40;"/></g><g id="tablet-liggend" serif:id="tablet liggend"><path d="M184.468,280.383L184.468,284.761C184.468,288.758 181.229,291.999 177.229,292L74.748,292L74.748,286.482L169.383,286.482L169.383,280.383L184.468,280.383ZM142.518,192L142.518,197.518L51.312,197.518L51.312,262.22L36,262.22L36,199.239C36,195.24 39.241,192 43.239,192L142.518,192Z" style="fill:#48565b;"/><path d="M184.468,280.383L184.468,284.761C184.468,288.758 181.23,291.999 177.229,292L74.748,292L74.748,286.482L169.383,286.482L169.383,280.383L184.468,280.383Z" style="fill:#323c40;"/><path d="M42.529,242C42.529,241.229 43.153,240.606 43.923,240.606C44.692,240.606 45.317,241.229 45.317,242C45.317,242.77 44.692,243.395 43.923,243.395C43.153,243.395 42.529,242.77 42.529,242Z" style="fill:#323c40;"/></g><g id="tablet-staand" serif:id="tablet staand"><path d="M229.761,147C233.759,147 237,150.241 237,154.239L237,288.229C237,292.228 233.759,295.468 229.761,295.468L144.239,295.468C140.24,295.468 137,292.228 137,288.229L137,154.239C137,150.241 140.24,147 144.239,147L229.761,147ZM231.482,280.383L231.482,162.312L142.518,162.312L142.518,280.383L231.482,280.383Z" style="fill:#48565b;"/><path d="M231.482,177.809L237,172.291L237,288.229C236.999,292.229 233.759,295.468 229.761,295.468L144.239,295.468C140.24,295.468 137,292.228 137,288.229L137,272.292L142.518,266.773L142.518,280.383L231.482,280.383L231.482,177.809Z" style="fill:#323c40;"/><path d="M187,153.529C186.229,153.529 185.606,154.153 185.606,154.923C185.606,155.692 186.229,156.317 187,156.317C187.77,156.317 188.395,155.692 188.395,154.923C188.395,154.153 187.77,153.529 187,153.529Z" style="fill:#323c40;"/><path d="M187,284.074C188.728,284.074 190.128,285.474 190.128,287.2C190.128,288.928 188.728,290.328 187,290.328C185.273,290.328 183.872,288.928 183.872,287.2C183.872,285.474 185.273,284.074 187,284.074Z" style="fill:#1d272b;"/></g><g id="mobile-liggend" serif:id="mobile liggend"><path d="M81.8,302L4.2,302C1.88,302 0,300.12 0,297.8L0,262.84C0,260.521 1.88,258.64 4.2,258.64L81.8,258.64C84.12,258.64 86,260.521 86,262.84L86,297.8C86,300.12 84.12,302 81.8,302ZM74.748,262.22L9.57,262.22L9.57,298.421L74.748,298.421L74.748,262.22Z" style="fill:#48565b;"/><path d="M59.604,262.22L63.184,258.64L81.8,258.64C84.12,258.64 86,260.521 86,262.84L86,297.8C86,300.119 84.121,302 81.8,302L19.824,302L23.403,298.421L74.748,298.421L74.748,262.22L59.604,262.22Z" style="fill:#323c40;"/><path d="M5.339,282.579L5.323,282.579C5.043,282.579 4.816,282.353 4.816,282.074L4.816,276.824C4.816,276.546 5.043,276.319 5.323,276.319L5.339,276.319C5.619,276.319 5.846,276.546 5.846,276.824L5.846,282.074C5.846,282.353 5.619,282.579 5.339,282.579Z" style="fill:#323c40;"/><path d="M5.331,284.589C6.087,284.589 6.699,285.202 6.699,285.957C6.699,286.712 6.087,287.325 5.331,287.325C4.575,287.325 3.963,286.712 3.963,285.957C3.963,285.202 4.575,284.589 5.331,284.589Z" style="fill:#323c40;"/><path d="M80.397,279.043C81.933,279.043 83.177,280.288 83.177,281.821C83.177,283.356 81.933,284.601 80.397,284.601C78.863,284.601 77.618,283.356 77.618,281.821C77.618,280.288 78.863,279.043 80.397,279.043Z" style="fill:#1d272b;"/></g></g></svg>